<svg width="64" height="77" viewBox="0 0 64 77" fill="none" xmlns="http://www.w3.org/2000/svg">
<rect x="63" y="1" width="75" height="62" rx="31" transform="rotate(90 63 1)" fill="#D9EF78"/>
<rect x="63" y="1" width="75" height="62" rx="31" transform="rotate(90 63 1)" stroke="#213D34" stroke-width="2"/>
<path d="M31.2617 47.6953L24.3867 40.8203C24.1289 40.5625 24 40.2187 24 39.875C24 39.4883 24.1289 39.1445 24.3867 38.8867C24.9023 38.3281 25.8047 38.3281 26.3203 38.8867L30.875 43.3984L30.875 30.25C30.875 29.4766 31.4766 28.875 32.25 28.875C32.9805 28.875 33.625 29.4766 33.625 30.25L33.625 43.3984L38.1367 38.8867C38.6523 38.3281 39.5547 38.3281 40.0703 38.8867C40.6289 39.4023 40.6289 40.3047 40.0703 40.8203L33.1953 47.6953C32.6797 48.2539 31.7773 48.2539 31.2617 47.6953Z" fill="#213D34"/>
</svg>
