<svg width="64" height="64" viewBox="0 0 64 64" fill="none" xmlns="http://www.w3.org/2000/svg">
<rect x="1" y="63" width="62" height="62" rx="31" transform="rotate(-90 1 63)" stroke="#213D34" stroke-width="2"/>
<path d="M32.7383 22.8047L39.6133 29.6797C39.8711 29.9375 40 30.2813 40 30.625C40 31.0117 39.8711 31.3555 39.6133 31.6133C39.0977 32.1719 38.1953 32.1719 37.6797 31.6133L33.125 27.1016L33.125 40.25C33.125 41.0234 32.5234 41.625 31.75 41.625C31.0195 41.625 30.375 41.0234 30.375 40.25L30.375 27.1016L25.8633 31.6133C25.3477 32.1719 24.4453 32.1719 23.9297 31.6133C23.3711 31.0977 23.3711 30.1953 23.9297 29.6797L30.8047 22.8047C31.3203 22.2461 32.2227 22.2461 32.7383 22.8047Z" fill="#213D34"/>
</svg>
